<?xml version="1.0" encoding="UTF-8"?>
<svg id="Layer_1" data-name="Layer 1" xmlns="http://www.w3.org/2000/svg" width="800" height="800" version="1.1" viewBox="0 0 800 800">
  <defs>
    <style>
      .cls-1 {
        fill: #000;
        stroke-width: 0px;
      }
    </style>
  </defs>
  <path class="cls-1" d="M733.3,65.7v133.3H66.7V65.7h666.7M733.3-1H66.7C29.8-1,0,28.8,0,65.7v133.3c0,36.8,29.8,66.7,66.7,66.7h666.7c36.8,0,66.7-29.8,66.7-66.7V65.7c0-36.8-29.8-66.7-66.7-66.7Z"/>
  <path class="cls-1" d="M200,399v333.3H66.7v-333.3h133.3M200,332.3H66.7c-36.8,0-66.7,29.8-66.7,66.7v333.3c0,36.8,29.8,66.7,66.7,66.7h133.3c36.8,0,66.7-29.8,66.7-66.7v-333.3c0-36.8-29.8-66.7-66.7-66.7Z"/>
  <path class="cls-1" d="M733.3,399v333.3h-333.3v-333.3h333.3M733.3,332.3h-333.3c-36.8,0-66.7,29.8-66.7,66.7v333.3c0,36.8,29.8,66.7,66.7,66.7h333.3c36.8,0,66.7-29.8,66.7-66.7v-333.3c0-36.8-29.8-66.7-66.7-66.7Z"/>
</svg>