<?xml version="1.0" encoding="UTF-8"?>
<svg xmlns="http://www.w3.org/2000/svg" width="600" height="600" version="1.1" viewBox="0 0 600 600">
  <defs>
    <style>
      .cls-1 {
        fill: #051377;
      }

      .cls-1, .cls-2, .cls-3 {
        stroke-width: 0px;
      }

      .cls-2, .cls-4 {
        fill: #000;
      }

      .cls-4 {
        stroke: #000;
        stroke-linejoin: round;
        stroke-width: 16px;
      }

      .cls-3 {
        fill: #fff;
      }
    </style>
  </defs>
  <g id="Layer_1" data-name="Layer 1">
    <path class="cls-1" d="M50-.4h500c27.6,0,50,22.4,50,50v500c0,27.6-22.4,50-50,50H50c-27.6,0-50-22.4-50-50V49.6C0,22,22.4-.4,50-.4Z"/>
    <polygon class="cls-4" points="156 149.3 506.6 149.3 476.7 491 126.1 491 156 149.3"/>
    <g>
      <polygon class="cls-3" points="123.3 108.2 474.7 108.2 444 459.7 92.5 459.7 123.3 108.2"/>
      <path class="cls-2" d="M444,467.7H92.5c-2.2,0-4.4-.9-5.9-2.6s-2.3-3.9-2.1-6.1l30.8-351.5c.4-4.1,3.8-7.3,8-7.3h351.4c2.2,0,4.4.9,5.9,2.6s2.3,3.9,2.1,6.1l-30.7,351.5c-.4,4.1-3.9,7.3-8,7.3ZM101.2,451.7h335.4l29.4-335.5H130.6l-29.4,335.5Z"/>
    </g>
  </g>
  <g id="Layer_2" data-name="Layer 2">
    <path class="cls-2" d="M406.8,234.1h-234.3c-1.9,0-3.4-1.6-3.2-3.5l7.6-71.6c.2-1.6,1.5-2.8,3.2-2.8h233.9c1.9,0,3.3,1.6,3.2,3.5l-7.2,71.6c-.2,1.6-1.5,2.9-3.2,2.9Z"/>
    <path class="cls-2" d="M273.5,326h-112.6c-1.8,0-3.2-1.5-3-3.3l7.2-67.6c.2-1.5,1.4-2.7,3-2.7h112c1.8,0,3.2,1.5,3,3.3l-6.6,67.6c-.1,1.5-1.4,2.7-3,2.7Z"/>
    <path class="cls-2" d="M398.7,326h-112.6c-1.8,0-3.2-1.5-3-3.3l7.2-67.6c.2-1.5,1.4-2.7,3-2.7h112c1.8,0,3.2,1.5,3,3.3l-6.6,67.6c-.1,1.5-1.4,2.7-3,2.7Z"/>
    <path class="cls-2" d="M265.6,411.8h-112.6c-1.8,0-3.2-1.5-3-3.3l7.2-67.6c.2-1.5,1.4-2.7,3-2.7h112c1.8,0,3.2,1.5,3,3.3l-6.6,67.6c-.1,1.5-1.4,2.7-3,2.7Z"/>
    <path class="cls-2" d="M390.8,411.8h-112.6c-1.8,0-3.2-1.5-3-3.3l7.2-67.6c.2-1.5,1.4-2.7,3-2.7h112c1.8,0,3.2,1.5,3,3.3l-6.6,67.6c-.1,1.5-1.4,2.7-3,2.7Z"/>
  </g>
</svg>