<?xml version="1.0" encoding="UTF-8"?>
<svg id="Layer_1" data-name="Layer 1" xmlns="http://www.w3.org/2000/svg" width="600" height="600" version="1.1" viewBox="0 0 600 600">
  <defs>
    <style>
      .cls-1 {
        fill: #4a00eb;
      }

      .cls-1, .cls-2, .cls-3 {
        stroke-width: 0px;
      }

      .cls-2, .cls-4 {
        fill: #000;
      }

      .cls-4 {
        stroke: #000;
        stroke-linejoin: round;
        stroke-width: 16px;
      }

      .cls-3 {
        fill: #fff;
      }
    </style>
  </defs>
  <g id="Layer_1-2" data-name="Layer 1">
    <path class="cls-1" d="M50-.4h500c27.6,0,50,22.4,50,50v500c0,27.6-22.4,50-50,50H50c-27.6,0-50-22.4-50-50V49.6C0,22,22.4-.4,50-.4Z"/>
    <polygon class="cls-4" points="156 149.3 506.6 149.3 476.7 491 126.1 491 156 149.3"/>
    <g>
      <polygon class="cls-3" points="123.3 108.2 474.7 108.2 444 459.7 92.5 459.7 123.3 108.2"/>
      <path class="cls-2" d="M444,467.7H92.5c-2.2,0-4.4-.9-5.9-2.6s-2.3-3.9-2.1-6.1l30.8-351.5c.4-4.1,3.8-7.3,8-7.3h351.4c2.2,0,4.4.9,5.9,2.6s2.3,3.9,2.1,6.1l-30.7,351.5c-.4,4.1-3.9,7.3-8,7.3h0ZM101.2,451.7h335.4l29.4-335.5H130.6s-29.4,335.5-29.4,335.5Z"/>
    </g>
  </g>
  <polygon class="cls-4" points="165.3 156.2 427.8 156.2 421.2 224.2 159 224.2 165.3 156.2"/>
  <polygon class="cls-4" points="154.4 262.7 231.3 262.7 216.5 418 140 418 154.4 262.7"/>
  <polygon class="cls-4" points="266.4 262.7 417.1 262.7 402 418 251 418 266.4 262.7"/>
</svg>